<svg width="20" height="20" viewBox="0 0 20 20" fill="none" xmlns="http://www.w3.org/2000/svg">
<g clip-path="url(#clip0_33_853)">
<path d="M11.8323 10.0166L19.62 2.22871C20.1268 1.72214 20.1268 0.90305 19.62 0.396534C19.1134 -0.110043 18.2943 -0.110043 17.7878 0.396534L9.99991 8.18433L2.21229 0.396534C1.70547 -0.110043 0.886691 -0.110043 0.380115 0.396534C-0.126705 0.903111 -0.126705 1.72214 0.380115 2.22871L8.16767 10.0166L0.380175 17.8044C-0.126644 18.3109 -0.126644 19.13 0.380175 19.6365C0.500338 19.7571 0.643127 19.8526 0.80034 19.9178C0.957552 19.9829 1.12609 20.0164 1.29627 20.0162C1.62791 20.0162 1.95967 19.8892 2.21236 19.6365L9.99991 11.8488L17.7878 19.6365C17.908 19.757 18.0508 19.8526 18.208 19.9177C18.3652 19.9829 18.5337 20.0163 18.7039 20.0162C19.0356 20.0162 19.3673 19.8892 19.62 19.6365C20.1268 19.13 20.1268 18.3109 19.62 17.8044L11.8323 10.0166Z" fill="white"/>
</g>
<defs>
<clipPath id="clip0_33_853">
<rect width="20" height="20" fill="white"/>
</clipPath>
</defs>
</svg>
