<svg width="20" height="17" viewBox="0 0 20 17" fill="none" xmlns="http://www.w3.org/2000/svg">
<g clip-path="url(#clip0_16_31)">
<path d="M0 13.1061L1.68917 15.9271C1.85748 16.2497 2.11601 16.5207 2.4344 16.7101C2.7528 16.8996 3.11938 16.9999 3.49333 17H14.7075L12.3808 13.1061H0ZM20 13.1263C20 12.7367 19.8808 12.3737 19.6767 12.0687L13.1067 1.03745C12.9348 0.724211 12.6778 0.462119 12.3633 0.279334C12.0488 0.096549 11.6887 -2.09234e-05 11.3217 3.40042e-09H7.84917L17.9983 16.9831L19.5983 14.307C19.9133 13.7943 20 13.5673 20 13.1263ZM10.7258 10.3399L6.19 2.75178L1.65333 10.3399H10.7258Z" fill="white"/>
</g>
<defs>
<clipPath id="clip0_16_31">
<rect width="20" height="17" fill="white"/>
</clipPath>
</defs>
</svg>
