<svg width="21" height="18" viewBox="0 0 21 18" fill="none" xmlns="http://www.w3.org/2000/svg">
<path fill-rule="evenodd" clip-rule="evenodd" d="M9.50502 15.7143C9.50502 15.3354 9.65553 14.972 9.92344 14.7041C10.1914 14.4362 10.5547 14.2857 10.9336 14.2857H19.505C19.8839 14.2857 20.2473 14.4362 20.5152 14.7041C20.7831 14.972 20.9336 15.3354 20.9336 15.7143C20.9336 16.0932 20.7831 16.4565 20.5152 16.7244C20.2473 16.9923 19.8839 17.1429 19.505 17.1429H10.9336C10.5547 17.1429 10.1914 16.9923 9.92344 16.7244C9.65553 16.4565 9.50502 16.0932 9.50502 15.7143ZM0.933594 1.42857C0.933594 1.04969 1.0841 0.686328 1.35201 0.418419C1.61992 0.15051 1.98328 0 2.36217 0H19.505C19.8839 0 20.2473 0.15051 20.5152 0.418419C20.7831 0.686328 20.9336 1.04969 20.9336 1.42857C20.9336 1.80745 20.7831 2.17081 20.5152 2.43872C20.2473 2.70663 19.8839 2.85714 19.505 2.85714H2.36217C1.98328 2.85714 1.61992 2.70663 1.35201 2.43872C1.0841 2.17081 0.933594 1.80745 0.933594 1.42857ZM0.933594 8.57143C0.933594 8.19255 1.0841 7.82919 1.35201 7.56128C1.61992 7.29337 1.98328 7.14286 2.36217 7.14286H19.505C19.8839 7.14286 20.2473 7.29337 20.5152 7.56128C20.7831 7.82919 20.9336 8.19255 20.9336 8.57143C20.9336 8.95031 20.7831 9.31367 20.5152 9.58158C20.2473 9.84949 19.8839 10 19.505 10H2.36217C1.98328 10 1.61992 9.84949 1.35201 9.58158C1.0841 9.31367 0.933594 8.95031 0.933594 8.57143Z" fill="white"/>
</svg>
