<svg width="296" height="30" viewBox="0 0 296 30" fill="none" xmlns="http://www.w3.org/2000/svg">
<path d="M13.6345 7.52C13.6079 5.62667 12.9812 4.04 11.7545 2.76C10.5279 1.48 8.9812 0.839998 7.11453 0.839998C5.72786 0.839998 4.52786 1.26666 3.51453 2.12C2.52786 2.97333 2.03453 4.13333 2.03453 5.6C2.03453 7.09333 2.7812 8.41333 4.27453 9.56L11.9945 15.6C13.1945 16.5333 14.0612 17.52 14.5945 18.56C15.1545 19.5733 15.4345 20.8267 15.4345 22.32C15.4345 24.4267 14.8079 26.16 13.5545 27.52C12.3012 28.8533 10.6879 29.52 8.71453 29.52C7.72786 29.52 6.7412 29.32 5.75453 28.92C4.76786 28.52 3.95453 28.12 3.31453 27.72C2.67453 27.32 2.2612 27.12 2.07453 27.12C1.5412 27.12 1.32786 27.7467 1.43453 29H1.03453V21.76H1.43453V21.8C1.43453 22.68 1.63453 23.5733 2.03453 24.48C2.43453 25.3867 2.9412 26.1467 3.55453 26.76C4.35453 27.5333 5.1412 28.12 5.91453 28.52C6.71453 28.92 7.67453 29.12 8.79453 29.12C10.3412 29.12 11.5945 28.6133 12.5545 27.6C13.5412 26.56 14.0345 25.2133 14.0345 23.56C14.0345 22.3867 13.7812 21.4267 13.2745 20.68C12.7679 19.9333 11.9679 19.12 10.8745 18.24L3.55453 12.64C1.7412 11.2533 0.834531 9.42667 0.834531 7.16C0.834531 5.13333 1.43453 3.50667 2.63453 2.28C3.83453 1.02667 5.3812 0.399999 7.27453 0.399999C8.28786 0.399999 9.47453 0.693332 10.8345 1.28C12.1945 1.86667 12.9145 2.16 12.9945 2.16C13.2079 2.16 13.3679 2.04 13.4745 1.8C13.6079 1.53333 13.6612 1.26666 13.6345 0.999998H13.9945V7.56H13.6345V7.52ZM33.2514 1.4H31.6514V0.999998H39.4514V1.4H37.8514C37.2647 1.4 36.7047 1.57333 36.1714 1.92C35.6647 2.26667 35.3047 2.70667 35.0914 3.24L30.7314 13.8V26.6C30.7314 27.2133 30.9047 27.7067 31.2514 28.08C31.6247 28.4267 32.1047 28.6 32.6914 28.6H34.3314V29H24.3314V28.6H25.9314C26.5447 28.6 27.0247 28.4133 27.3714 28.04C27.7447 27.6667 27.9314 27.1867 27.9314 26.6V14.4L22.2514 3.2C21.9847 2.66667 21.5847 2.24 21.0514 1.92C20.5447 1.57333 19.9847 1.4 19.3714 1.4H18.1714V0.999998H28.1714V1.4H26.4914C25.9047 1.4 25.5047 1.57333 25.2914 1.92C25.1047 2.24 25.1447 2.66667 25.4114 3.2L30.4514 13.24L34.4914 3.24C34.7047 2.70667 34.6914 2.26667 34.4514 1.92C34.2381 1.57333 33.8381 1.4 33.2514 1.4ZM49.9055 28.6H52.9455C54.1455 28.6 55.1588 28.24 55.9855 27.52C56.8388 26.7733 57.3455 25.8133 57.5055 24.64L57.7455 22.6H58.1455L57.3455 29H42.7055V28.6H44.3055C44.9188 28.6 45.3988 28.4133 45.7455 28.04C46.1188 27.6667 46.3055 27.1867 46.3055 26.6V3.4C46.3055 2.81333 46.1188 2.33333 45.7455 1.96C45.3988 1.58666 44.9188 1.4 44.3055 1.4H42.7055V0.999998H52.7055V1.4H51.1055C50.4921 1.4 49.9988 1.58666 49.6255 1.96C49.2788 2.33333 49.1055 2.81333 49.1055 3.4V27.8C49.1055 28.3333 49.3721 28.6 49.9055 28.6ZM73.9877 1.4H72.4277V0.999998H80.3877V1.4H78.7477C78.161 1.4 77.641 1.58666 77.1877 1.96C76.7343 2.30666 76.441 2.77333 76.3077 3.36L70.3877 29.2H69.9477L62.5477 3.32C62.3877 2.73333 62.081 2.26667 61.6277 1.92C61.1743 1.57333 60.641 1.4 60.0277 1.4H58.7877V0.999998H69.2277V1.4H67.3477C66.7343 1.4 66.2943 1.57333 66.0277 1.92C65.761 2.26667 65.7077 2.73333 65.8677 3.32L71.0677 23.72L75.5477 3.36C75.681 2.77333 75.601 2.30666 75.3077 1.96C75.0143 1.58666 74.5743 1.4 73.9877 1.4ZM92.1552 28.6H93.7552V29H83.7552V28.6H85.3952C85.9818 28.6 86.4485 28.4133 86.7952 28.04C87.1685 27.6667 87.3552 27.1867 87.3552 26.6V3.4C87.3552 2.81333 87.1685 2.33333 86.7952 1.96C86.4485 1.58666 85.9818 1.4 85.3952 1.4H83.7552V0.999998H93.7552V1.4H92.1552C91.5685 1.4 91.0885 1.58666 90.7152 1.96C90.3418 2.33333 90.1552 2.81333 90.1552 3.4V26.6C90.1552 27.1867 90.3418 27.6667 90.7152 28.04C91.0885 28.4133 91.5685 28.6 92.1552 28.6ZM103.358 28.6H104.998V29H97.198V28.6H98.798C99.4113 28.6 99.9313 28.4267 100.358 28.08C100.811 27.7333 101.091 27.2667 101.198 26.68L107.118 0.399999H107.558L114.758 26.68C114.918 27.2667 115.225 27.7333 115.678 28.08C116.131 28.4267 116.665 28.6 117.278 28.6H118.518V29H108.518V28.6H110.198C110.785 28.6 111.211 28.4267 111.478 28.08C111.745 27.7333 111.811 27.2667 111.678 26.68L110.558 22.52H102.758L101.798 26.68C101.665 27.2667 101.745 27.7333 102.038 28.08C102.331 28.4267 102.771 28.6 103.358 28.6ZM102.838 22.12H110.478L106.358 6.48L102.838 22.12ZM161.105 9.36C159.185 3.73333 155.972 0.919999 151.465 0.919999C148.558 0.919999 146.238 1.98667 144.505 4.12C142.772 6.25333 141.905 9.12 141.905 12.72C141.905 17.28 142.998 21.12 145.185 24.24C147.372 27.36 150.052 28.92 153.225 28.92C155.412 28.92 157.372 28.3067 159.105 27.08V16.2C159.105 15.6133 158.918 15.1467 158.545 14.8C158.198 14.4267 157.718 14.24 157.105 14.24H149.105V13.84H163.905V14.24C163.292 14.24 162.798 14.4267 162.425 14.8C162.078 15.1467 161.905 15.6133 161.905 16.2V29L161.545 28.8C161.038 28.5867 160.438 28.48 159.745 28.48C159.078 28.48 157.905 28.6533 156.225 29C154.545 29.32 153.238 29.48 152.305 29.48C148.385 29.48 145.212 28.1467 142.785 25.48C140.385 22.8133 139.185 19.3067 139.185 14.96C139.185 10.6133 140.385 7.10667 142.785 4.44C145.212 1.74667 148.385 0.399999 152.305 0.399999C155.398 0.399999 158.065 1.34667 160.305 3.24L160.025 0.999998H160.425L161.465 9.2L161.105 9.36ZM176.591 1.4H175.351C174.817 1.4 174.551 1.66666 174.551 2.2V26.6C174.551 27.1867 174.724 27.6667 175.071 28.04C175.444 28.4133 175.937 28.6 176.551 28.6H178.151V29H168.151V28.6H169.791C170.377 28.6 170.844 28.4267 171.191 28.08C171.564 27.7067 171.751 27.2133 171.751 26.6V3.36C171.751 2.77333 171.564 2.30666 171.191 1.96C170.844 1.58666 170.377 1.4 169.791 1.4H168.151V0.999998H176.871C180.071 1.02666 182.511 1.48 184.191 2.36C185.897 3.24 186.751 4.49333 186.751 6.12C186.751 7.13333 186.417 8.02667 185.751 8.8C185.111 9.54667 184.297 10.16 183.311 10.64C182.351 11.12 181.364 11.5733 180.351 12C179.364 12.4267 178.471 12.92 177.671 13.48C176.871 14.04 176.364 14.6667 176.151 15.36L181.671 12.8L185.111 23.48C185.884 25.8533 186.564 27.3067 187.151 27.84C187.764 28.3467 189.097 28.6 191.151 28.6C191.151 28.8133 191.164 28.9467 191.191 29H189.311C187.017 29 185.457 28.72 184.631 28.16C183.804 27.5733 183.084 26.32 182.471 24.4L179.231 14.4L176.071 15.88L175.751 15.56C175.831 14.84 176.164 14.2 176.751 13.64C177.337 13.08 178.017 12.6 178.791 12.2C179.564 11.7733 180.337 11.3333 181.111 10.88C181.884 10.4 182.537 9.76 183.071 8.96C183.604 8.16 183.871 7.21333 183.871 6.12C183.871 4.52 183.297 3.33333 182.151 2.56C181.004 1.78666 179.151 1.4 176.591 1.4ZM198.381 28.6H200.021V29H192.221V28.6H193.821C194.435 28.6 194.955 28.4267 195.381 28.08C195.835 27.7333 196.115 27.2667 196.221 26.68L202.141 0.399999H202.581L209.781 26.68C209.941 27.2667 210.248 27.7333 210.701 28.08C211.155 28.4267 211.688 28.6 212.301 28.6H213.541V29H203.541V28.6H205.221C205.808 28.6 206.235 28.4267 206.501 28.08C206.768 27.7333 206.835 27.2667 206.701 26.68L205.581 22.52H197.781L196.821 26.68C196.688 27.2667 196.768 27.7333 197.061 28.08C197.355 28.4267 197.795 28.6 198.381 28.6ZM197.861 22.12H205.501L201.381 6.48L197.861 22.12ZM225.605 28.6H227.245V29H217.245V28.6H218.845C219.432 28.6 219.912 28.4133 220.285 28.04C220.659 27.6667 220.845 27.1867 220.845 26.6V3.4C220.845 2.81333 220.659 2.33333 220.285 1.96C219.912 1.58666 219.432 1.4 218.845 1.4H217.245V0.999998H227.245V1.4H225.605C225.019 1.4 224.539 1.58666 224.165 1.96C223.819 2.30666 223.645 2.78666 223.645 3.4V13.84H232.805V3.4C232.805 2.78666 232.619 2.30666 232.245 1.96C231.899 1.58666 231.432 1.4 230.845 1.4H229.205V0.999998H239.205V1.4H237.605C236.992 1.4 236.499 1.58666 236.125 1.96C235.779 2.33333 235.605 2.81333 235.605 3.4V26.6C235.605 27.1867 235.779 27.6667 236.125 28.04C236.499 28.4133 236.992 28.6 237.605 28.6H239.205V29H229.205V28.6H230.845C231.432 28.6 231.899 28.4267 232.245 28.08C232.619 27.7067 232.805 27.2133 232.805 26.6V14.24H223.645V26.6C223.645 27.2133 223.819 27.7067 224.165 28.08C224.539 28.4267 225.019 28.6 225.605 28.6ZM248.686 28.6H250.326V29H242.526V28.6H244.126C244.739 28.6 245.259 28.4267 245.686 28.08C246.139 27.7333 246.419 27.2667 246.526 26.68L252.446 0.399999H252.886L260.086 26.68C260.246 27.2667 260.553 27.7333 261.006 28.08C261.459 28.4267 261.993 28.6 262.606 28.6H263.846V29H253.846V28.6H255.526C256.113 28.6 256.539 28.4267 256.806 28.08C257.073 27.7333 257.139 27.2667 257.006 26.68L255.886 22.52H248.086L247.126 26.68C246.993 27.2667 247.073 27.7333 247.366 28.08C247.659 28.4267 248.099 28.6 248.686 28.6ZM248.166 22.12H255.806L251.686 6.48L248.166 22.12ZM270.881 1.4H268.601V0.999998H274.161L281.321 22.48L287.081 0.999998H291.441V1.4H290.161C289.041 1.4 288.454 1.93333 288.401 3L291.641 26.6C291.721 27.1867 291.961 27.6667 292.361 28.04C292.788 28.4133 293.308 28.6 293.921 28.6H295.201V29H284.801V28.6H286.721C287.334 28.6 287.801 28.4133 288.121 28.04C288.441 27.6667 288.574 27.1867 288.521 26.6L286.521 5.28L280.481 28.6H279.681V28.56L273.121 5.04L271.681 26.6C271.654 27.1867 271.801 27.6667 272.121 28.04C272.468 28.4133 272.948 28.6 273.561 28.6H275.081V29H267.121V28.6H268.721C269.334 28.6 269.841 28.4133 270.241 28.04C270.641 27.6667 270.854 27.1867 270.881 26.6L272.721 3.4C272.774 2.78666 272.628 2.30666 272.281 1.96C271.934 1.58666 271.468 1.4 270.881 1.4Z" fill="url(#paint0_linear_1_5)"/>
<defs>
<linearGradient id="paint0_linear_1_5" x1="-1.09896e-06" y1="14" x2="295" y2="14" gradientUnits="userSpaceOnUse">
<stop stop-color="#FF5E66"/>
<stop offset="0.520833" stop-color="#FF334F"/>
<stop offset="1" stop-color="#F4007C"/>
</linearGradient>
</defs>
</svg>
