<svg width="12" height="16" viewBox="0 0 12 16" fill="none" xmlns="http://www.w3.org/2000/svg">
<path d="M11.3875 7.24172L2.45973 0.788357C2.29934 0.672084 2.10972 0.602196 1.91187 0.586428C1.71402 0.570659 1.51563 0.609624 1.33866 0.69901C1.16169 0.788397 1.01304 0.92472 0.909151 1.0929C0.80526 1.26108 0.75018 1.45456 0.750005 1.65193V14.5544C0.749399 14.7521 0.804032 14.946 0.907808 15.1147C1.01158 15.2833 1.16043 15.4199 1.33773 15.5093C1.51503 15.5987 1.71383 15.6374 1.91194 15.621C2.11006 15.6046 2.2997 15.5338 2.45973 15.4166L11.3875 8.96888C11.5254 8.87049 11.6378 8.74084 11.7154 8.59066C11.7929 8.44049 11.8333 8.27411 11.8333 8.1053C11.8333 7.93649 11.7929 7.77011 11.7154 7.61994C11.6378 7.46976 11.5254 7.34011 11.3875 7.24172Z" fill="white"/>
</svg>
