<svg width="22" height="22" viewBox="0 0 22 22" fill="none" xmlns="http://www.w3.org/2000/svg">
<path d="M3.17436 11.64H20.399C21.0477 11.64 21.5735 11.0491 21.5735 10.3199C21.5735 9.59088 21.0479 9 20.399 9H3.17436C2.5258 9.00018 2 9.59106 2 10.3201C2 11.0491 2.5258 11.64 3.17436 11.64Z" fill="white"/>
<path d="M10.36 1.17436L10.36 18.399C10.36 19.0477 10.9509 19.5735 11.6801 19.5735C12.4091 19.5735 13 19.0479 13 18.399L13 1.17436C12.9998 0.525795 12.4089 0 11.6799 0C10.9509 0 10.36 0.525795 10.36 1.17436Z" fill="white"/>
</svg>
