<svg width="20" height="14" viewBox="0 0 20 14" fill="none" xmlns="http://www.w3.org/2000/svg">
<path d="M19.5832 2.18591C19.3541 1.32682 18.6764 0.649091 17.8142 0.416818C16.2552 1.51721e-07 10 0 10 0C10 0 3.74801 1.51721e-07 2.18581 0.416818C1.32676 0.645909 0.649061 1.32364 0.416799 2.18591C0 3.745 0 7 0 7C0 7 0 10.255 0.416799 11.8141C0.64588 12.6732 1.32358 13.3509 2.18581 13.5832C3.74801 14 10 14 10 14C10 14 16.2552 14 17.8142 13.5832C18.6732 13.3541 19.3509 12.6764 19.5832 11.8141C20 10.255 20 7 20 7C20 7 20 3.745 19.5832 2.18591Z" fill="white"/>
<path d="M8.00191 10.0005L13.1976 7L8.00191 3.99955V10.0005Z" fill="black"/>
</svg>
